#N canvas 642 26 1191 787 10;
#X obj 12 12 inlet;
#X obj 194 13 inlet;
#X obj 240 790 outlet;
#X obj 422 787 outlet;
#X obj 161 422 netsend -u;
#X obj 86 368 list prepend send;
#X obj 86 390 list trim;
#X msg 221 372 disconnect;
#X text 243 423 -u for UDP;
#X text 298 372 click to disconnect;
#X text 205 344 the OSC tag;
#X text 301 259 send to localhost on port 3001 ports must be greater
than 1000;
#X msg 254 107 57120;
#X msg 148 261 connect localhost \$1;
#X obj 252 69 loadbang;
#X obj 9 82 route info open close, f 22;
#X obj 329 639 netreceive -u;
#X obj 331 666 oscparse;
#X obj 283 700 print;
#X msg 427 604 listen 0;
#X text 413 561 listen to this port;
#X text 495 605 stop listening;
#X text 422 639 -u for UDP;
#X text 390 666 turn the message into a list;
#X obj 337 700 list trim;
#X floatatom 338 768 5 0 0 0 - - -, f 5;
#X text 411 699 remove 'list' from the start;
#X text 449 734 only take lists that start with 'foo' \, our OSC tag
;
#X floatatom 192 185 5 0 0 0 - - -, f 5;
#X msg 328 560 listen \$1;
#X obj 507 411 + 1;
#X obj 337 735 route hid_query;
#X obj 60 107 bng 15 250 50 0 empty empty empty 17 7 0 10 -262144 -1
-1;
#X obj 173 106 bng 15 250 50 0 empty empty empty 17 7 0 10 -262144
-1 -1;
#X obj 5 140 oscformat -f b hid_info;
#X obj 36 166 oscformat -f b hid_open;
#X obj 65 197 oscformat -f b hid_close;
#X connect 0 0 15 0;
#X connect 1 0 28 0;
#X connect 1 0 30 0;
#X connect 5 0 6 0;
#X connect 6 0 4 0;
#X connect 7 0 4 0;
#X connect 12 0 28 0;
#X connect 12 0 30 0;
#X connect 13 0 4 0;
#X connect 14 0 12 0;
#X connect 15 0 34 0;
#X connect 15 1 35 0;
#X connect 15 2 19 0;
#X connect 15 2 36 0;
#X connect 16 0 17 0;
#X connect 17 0 18 0;
#X connect 17 0 24 0;
#X connect 19 0 16 0;
#X connect 24 0 31 0;
#X connect 28 0 13 0;
#X connect 29 0 16 0;
#X connect 30 0 29 0;
#X connect 31 0 25 0;
#X connect 31 0 2 0;
#X connect 32 0 34 0;
#X connect 33 0 36 0;
#X connect 34 0 5 0;
#X connect 35 0 5 0;
#X connect 36 0 5 0;
